GIL11_fast2_RRA_states
nRows=7
nColumns=47

# SIMM Motion File Header:
name GIL11_fast2_RRA_states
datacolumns 47
datarows 7
otherdata 1
range 0.11000000000000000000 0.11000063000000000000
endheader
time	pelvis_tx	pelvis_ty	pelvis_tz	pelvis_tilt	pelvis_list	pelvis_rotation	hip_flexion_r	hip_adduction_r	hip_rotation_r	knee_angle_r	ankle_angle_r	subtalar_angle_r	mtp_angle_r	hip_flexion_l	hip_adduction_l	hip_rotation_l	knee_angle_l	ankle_angle_l	subtalar_angle_l	mtp_angle_l	lumbar_extension	lumbar_bending	lumbar_rotation	pelvis_tx_u	pelvis_ty_u	pelvis_tz_u	pelvis_tilt_u	pelvis_list_u	pelvis_rotation_u	hip_flexion_r_u	hip_adduction_r_u	hip_rotation_r_u	knee_angle_r_u	ankle_angle_r_u	subtalar_angle_r_u	mtp_angle_r_u	hip_flexion_l_u	hip_adduction_l_u	hip_rotation_l_u	knee_angle_l_u	ankle_angle_l_u	subtalar_angle_l_u	mtp_angle_l_u	lumbar_extension_u	lumbar_bending_u	lumbar_rotation_u
      0.11000000000000000000	      1.29437571820513160000	      0.83766608772083573000	     -0.26105791034432818000	     -4.79432925020392900000	     -6.74618984494807880000	      3.33715088343162190000	     30.00665942667090700000	      6.29470267386163230000	      2.38789938434048480000	    -26.86075040217535900000	      3.05203799904258990000	      0.00000000000000000000	      0.00000000000000000000	     -7.94738860075679820000	    -13.14362872184353600000	     10.14185597525090500000	    -39.55565933197095100000	    -29.43765789901931400000	      0.00000000000000000000	      0.00000000000000000000	     -3.05449089830041090000	      6.11872166520015350000	     -3.20999902969788580000	      1.64552158663341590000	      0.18526428359657146000	      0.36641191349008345000	      3.70067999703609770000	    -31.30068864663726600000	    -50.19932125420010700000	   -106.40742393164939000000	     54.06222435509569400000	   -141.06187114406370000000	    -24.43048416185335700000	     95.22490940183985200000	      0.00000000000000000000	      0.00000000000000000000	    186.18701948569498000000	    -31.38802537892168900000	     58.92855712502319700000	   -347.38069202965505000000	    154.06010932522057000000	      0.00000000000000000000	      0.00000000000000000000	    -10.24976771085378900000	     10.09647184230380300000	    100.46929607734843000000
      0.11000001000000000000	      1.29437573466034730000	      0.83766608957347866000	     -0.26105790668020912000	     -4.79432921319712870000	     -6.74619015795493390000	      3.33715038143841620000	     30.00665836259663200000	      6.29470321448384860000	      2.38789797372188680000	    -26.86075064648013100000	      3.05203895129154650000	     -0.00000000000000000000	     -0.00000000000000000000	     -7.94738673888659090000	    -13.14362903572374600000	     10.14185656453647700000	    -39.55566280577782100000	    -29.43765635841812100000	      0.00000000000000000000	      0.00000000000000000000	     -3.05449100079809500000	      6.11872176616482920000	     -3.20999802500492800000	      1.64552155796978390000	      0.18526431034617469000	      0.36641190292930065000	      3.70068006651997910000	    -31.30068242184641400000	    -50.19931990084015200000	   -106.40743175422257000000	     54.06221891083610800000	   -141.06184845936858000000	    -24.43047023683614300000	     95.22488193236101500000	     -0.00000000000000000004	     -0.00000000000000000049	    186.18702193895240000000	    -31.38801678249070900000	     58.92855715137549300000	   -347.38068120980893000000	    154.06012907569786000000	      0.00000000000000000002	     -0.00000000000000000001	    -10.24976902387338700000	     10.09646341783719400000	    100.46929545076902000000
      0.11000003000000000000	      1.29437576757077790000	      0.83766609327876540000	     -0.26105789935197127000	     -4.79432913918352630000	     -6.74619078396845760000	      3.33714937745204530000	     30.00665623444783800000	      6.29470429572811780000	      2.38789515248537180000	    -26.86075113508925600000	      3.05204085578863580000	      0.00000000000000000000	     -0.00000000000000000000	     -7.94738301514610420000	    -13.14362966348391000000	     10.14185774310762000000	    -39.55566975339122800000	    -29.43765327721514400000	      0.00000000000000000000	     -0.00000000000000000000	     -3.05449120579350140000	      6.11872196809392930000	     -3.20999601561903170000	      1.64552150064256430000	      0.18526436384540396000	      0.36641188180772954000	      3.70068020551622730000	    -31.30066997225606300000	    -50.19931719410777000000	   -106.40744739942022000000	     54.06220802231693800000	   -141.06180308997801000000	    -24.43044238677897100000	     95.22482699405868800000	      0.00000000000000000124	     -0.00000000000000000016	    186.18702684542555000000	    -31.38799958962294700000	     58.92855720409232100000	   -347.38065957009070000000	    154.06016857664724000000	      0.00000000000000000004	     -0.00000000000000000003	    -10.24977164993911800000	     10.09644656889384400000	    100.46929419759998000000
      0.11000007000000001000	      1.29437583339163550000	      0.83766610068934211000	     -0.26105788469549684000	     -4.79432899115631180000	     -6.74619203599475800000	      3.33714736947946600000	     30.00665197814931800000	      6.29470645821600350000	      2.38788951001506260000	    -26.86075211230583500000	      3.05204466477951850000	      0.00000000000000000000	      0.00000000000000000000	     -7.94737556766483430000	    -13.14363091900320800000	     10.14186010024990900000	    -39.55568364861675000000	    -29.43764711480681800000	      0.00000000000000000000	     -0.00000000000000000000	     -3.05449161578447280000	      6.11872237195111790000	     -3.20999199684731360000	      1.64552138598830240000	      0.18526447084395375000	      0.36641183956456547000	      3.70068048362266430000	    -31.30064507304081500000	    -50.19931178059314900000	   -106.40747869002062000000	     54.06218624527853200000	   -141.06171235119592000000	    -24.43038668657362300000	     95.22471712007548200000	      0.00000000000000000232	      0.00000000000000000004	    186.18703665820536000000	    -31.38796520386416600000	     58.92855730957490600000	   -347.38061629055028000000	    154.06024757852515000000	      0.00000000000000000019	     -0.00000000000000000006	    -10.24977690217670900000	     10.09641287096662400000	    100.46929169122107000000
      0.11000015000000000000	      1.29437596503333730000	      0.83766611551050829000	     -0.26105785538255305000	     -4.79432869510185180000	     -6.74619454004437190000	      3.33714335353495660000	     30.00664346554851700000	      6.29471078318916180000	      2.38787822508533360000	    -26.86075406673231600000	      3.05205228274809850000	      0.00000000000000000000	     -0.00000000000000000000	     -7.94736067270111590000	    -13.14363343003767200000	     10.14186481453450400000	    -39.55571143906259100000	    -29.43763478998069200000	      0.00000000000000000000	     -0.00000000000000000000	     -3.05449243576704490000	      6.11872317966145120000	     -3.20998395930417900000	      1.64552115668048840000	      0.18526468484141836000	      0.36641175507814949000	      3.70068104029130000000	    -31.30059527447211600000	    -50.19930095336445000000	   -106.40754127204193000000	     54.06214269120143700000	   -141.06153087362776000000	    -24.43027528579891700000	     95.22449738259490500000	      0.00000000000000000650	      0.00000000000000000034	    186.18705628309888000000	    -31.38789643225364000000	     58.92855752073578700000	   -347.38052973105357000000	    154.06040558219755000000	      0.00000000000000000013	     -0.00000000000000000004	    -10.24978740707641800000	     10.09634547495008200000	    100.46928667829998000000
      0.11000031000000000000	      1.29437622831668580000	      0.83766614515289206000	     -0.26105779675668578000	     -4.79432810299279580000	     -6.74619954813164750000	      3.33713532164853620000	     30.00662644033190000000	      6.29471943312502360000	      2.38785565526943030000	    -26.86075797555853800000	      3.05206751863252410000	      0.00000000000000000000	      0.00000000000000000000	     -7.94733088276896990000	    -13.14363845209010000000	     10.14187424310374100000	    -39.55576701993349800000	    -29.43761014029051600000	      0.00000000000000000000	     -0.00000000000000000000	     -3.05449407573471100000	      6.11872479506594400000	     -3.20996788421911240000	      1.64552069806769800000	      0.18526511283780775000	      0.36641158610496655000	      3.70068215545162270000	    -31.30049567678190300000	    -50.19927929810925300000	   -106.40766643936644000000	     54.06205558304616000000	   -141.06116791847555000000	    -24.43005248279344200000	     95.22405794957705900000	     -0.00000000000000000598	      0.00000000000000000621	    186.18709553022160000000	    -31.38775888866071300000	     58.92855794384038100000	   -347.38035661039640000000	    154.06072158920855000000	      0.00000000000000000079	     -0.00000000000000000052	    -10.24980841857393100000	     10.09621068226860000000	    100.46927665180455000000
      0.11000063000000000000	      1.29437675488316240000	      0.83766620443786510000	     -0.26105767950503228000	     -4.79432691877414820000	     -6.74620956425839240000	      3.33711925788609110000	     30.00659238983858400000	      6.29473673295493530000	      2.38781051581184260000	    -26.86076579310403300000	      3.05209799019047030000	     -0.00000000000000000000	      0.00000000000000000000	     -7.94727130288584240000	    -13.14364849612892900000	     10.14189310024241800000	    -39.55587818159221300000	    -29.43756084075849000000	      0.00000000000000000000	     -0.00000000000000000000	     -3.05449735568012980000	      6.11872802581022860000	     -3.20993573405379310000	      1.64551978085346890000	      0.18526596883642715000	      0.36641124815719650000	      3.70068439306449990000	    -31.30029647919018000000	    -50.19923598440758600000	   -106.40791678714331000000	     54.06188136673121400000	   -141.06044200810754000000	    -24.42960687095805400000	     95.22317925131542900000	     -0.00000000000000000410	      0.00000000000000005544	    186.18717401380957000000	    -31.38748379998728300000	     58.92855879318088300000	   -347.38001036242736000000	    154.06135360189549000000	      0.00000000000000000276	     -0.00000000000000000013	    -10.24985044836136800000	     10.09594109431201200000	    100.46925659620079000000
